<svg width="58" height="48" viewBox="0 0 58 48" fill="none" xmlns="http://www.w3.org/2000/svg">
<path d="M43.3398 38.68C43.2998 38.68 43.2798 38.68 43.2398 38.68C42.4198 38.68 41.6599 38 41.6599 37.18C41.6599 36.32 42.2998 35.68 43.1398 35.68C45.5998 35.68 47.7998 34.82 49.5198 33.28C52.6398 30.56 52.8398 26.64 51.9998 23.88C51.1598 21.14 48.8198 18 44.7398 17.5C44.0798 17.42 43.5598 16.92 43.4398 16.26C42.6398 11.46 40.0598 8.14001 36.1398 6.94001C32.0998 5.68001 27.3798 6.92 24.4398 10C21.5798 12.98 20.9198 17.16 22.5798 21.76C22.8598 22.54 22.4599 23.4 21.6799 23.68C20.8999 23.96 20.0398 23.56 19.7598 22.78C17.7398 17.14 18.6599 11.74 22.2799 7.94001C25.9799 4.06001 31.9198 2.51999 37.0198 4.07999C41.6998 5.51999 44.9998 9.37999 46.1998 14.74C50.2798 15.66 53.5598 18.76 54.8598 23.04C56.2798 27.7 54.9998 32.5 51.4998 35.54C49.2798 37.54 46.3798 38.68 43.3398 38.68Z" fill="white"/>
<path d="M6 23.5977L4.56721 23.6949C4.59467 17.8 8.9288 14.8649 12.9399 14.5972C16.951 14.3295 21.6567 16.6612 22.4407 22.4017C22.5752 23.2145 21.9846 23.9755 21.1504 24.0913C20.3362 24.2058 19.5765 23.6352 19.4607 22.8011C18.9229 18.9484 15.8936 17.4067 13.1197 17.5919C10.3459 17.777 7.54826 19.7076 7.5273 23.5977L8 23.5977C8.05461 24.4158 6.81818 23.6403 6 23.6949C5.18182 23.7495 6.05461 24.4158 6 23.5977Z" fill="white"/>
<path d="M43 38.6729L8.5199 39C2.6399 38.58 0 34.06 0 30.04C0 26.02 2.63992 21.48 8.41992 21.08C9.23992 21 9.9599 21.64 10.0199 22.48C10.0799 23.3 9.46 24.02 8.62 24.08C4.74 24.36 3 27.28 3 30.06C3 32.84 4.74 35.76 8.62 36.04L42 35.6729C42.82 35.6729 44 35.8529 44 36.6729C44 37.4929 43.82 38.6729 43 38.6729Z" fill="white"/>
</svg>
