<svg width="48" height="48" viewBox="0 0 48 48" fill="none" xmlns="http://www.w3.org/2000/svg">
<path d="M15.9999 29.4999C15.6199 29.4999 15.2399 29.36 14.9399 29.06L10.9399 25.06C10.3599 24.48 10.3599 23.5199 10.9399 22.9399L14.9399 18.9399C15.5199 18.3599 16.4799 18.3599 17.0599 18.9399C17.6399 19.5199 17.6399 20.48 17.0599 21.06L14.1199 23.9999L17.0599 26.9399C17.6399 27.5199 17.6399 28.48 17.0599 29.06C16.7599 29.36 16.3799 29.4999 15.9999 29.4999Z" fill="white"/>
<path d="M31.9999 29.4999C31.6199 29.4999 31.2399 29.36 30.9399 29.06C30.3599 28.48 30.3599 27.5199 30.9399 26.9399L33.8799 23.9999L30.9399 21.06C30.3599 20.48 30.3599 19.5199 30.9399 18.9399C31.5199 18.3599 32.4799 18.3599 33.0599 18.9399L37.0599 22.9399C37.6399 23.5199 37.6399 24.48 37.0599 25.06L33.0599 29.06C32.7599 29.36 32.3799 29.4999 31.9999 29.4999Z" fill="white"/>
<path d="M24 45.5C12.14 45.5 2.5 35.86 2.5 24C2.5 12.14 12.14 2.5 24 2.5C35.86 2.5 45.5 12.14 45.5 24C45.5 35.86 35.86 45.5 24 45.5ZM24 5.5C13.8 5.5 5.5 13.8 5.5 24C5.5 34.2 13.8 42.5 24 42.5C34.2 42.5 42.5 34.2 42.5 24C42.5 13.8 34.2 5.5 24 5.5Z" fill="white"/>
<path d="M22.0002 30.1601C21.8002 30.1601 21.6002 30.1201 21.4202 30.0401C20.6602 29.7201 20.3002 28.8402 20.6402 28.0602L24.6402 18.7201C24.9602 17.9601 25.8402 17.6 26.6002 17.94C27.3602 18.26 27.7202 19.1402 27.3802 19.9202L23.3802 29.2601C23.1402 29.8201 22.5802 30.1601 22.0002 30.1601Z" fill="white"/>
</svg>
