<svg width="48" height="48" viewBox="0 0 48 48" fill="none" xmlns="http://www.w3.org/2000/svg">
<path d="M38.6396 21.5H9.37955C5.59955 21.5 2.51953 18.42 2.51953 14.64V9.38004C2.51953 5.60004 5.59955 2.52002 9.37955 2.52002H38.6396C42.4196 2.52002 45.4995 5.60004 45.4995 9.38004V14.64C45.4995 18.42 42.4196 21.5 38.6396 21.5ZM9.35953 5.50003C7.21953 5.50003 5.49954 7.24002 5.49954 9.36002V14.62C5.49954 16.76 7.23953 18.48 9.35953 18.48H38.6195C40.7595 18.48 42.4796 16.74 42.4796 14.62V9.36002C42.4796 7.22002 40.7395 5.50003 38.6195 5.50003H9.35953Z" fill="white"/>
<path d="M38.6396 45.5H9.37955C5.59955 45.5 2.51953 42.42 2.51953 38.64V33.38C2.51953 29.6 5.59955 26.52 9.37955 26.52H38.6396C42.4196 26.52 45.4995 29.6 45.4995 33.38V38.64C45.4995 42.42 42.4196 45.5 38.6396 45.5ZM9.35953 29.5C7.21953 29.5 5.49954 31.24 5.49954 33.36V38.62C5.49954 40.76 7.23953 42.48 9.35953 42.48H38.6195C40.7595 42.48 42.4796 40.74 42.4796 38.62V33.36C42.4796 31.22 40.7395 29.5 38.6195 29.5H9.35953Z" fill="white"/>
<path d="M12 15.5C11.18 15.5 10.5 14.82 10.5 14V10C10.5 9.18 11.18 8.5 12 8.5C12.82 8.5 13.5 9.18 13.5 10V14C13.5 14.82 12.82 15.5 12 15.5Z" fill="white"/>
<path d="M20 15.5C19.18 15.5 18.5 14.82 18.5 14V10C18.5 9.18 19.18 8.5 20 8.5C20.82 8.5 21.5 9.18 21.5 10V14C21.5 14.82 20.82 15.5 20 15.5Z" fill="white"/>
<path d="M12 39.5C11.18 39.5 10.5 38.82 10.5 38V34C10.5 33.18 11.18 32.5 12 32.5C12.82 32.5 13.5 33.18 13.5 34V38C13.5 38.82 12.82 39.5 12 39.5Z" fill="white"/>
<path d="M20 39.5C19.18 39.5 18.5 38.82 18.5 38V34C18.5 33.18 19.18 32.5 20 32.5C20.82 32.5 21.5 33.18 21.5 34V38C21.5 38.82 20.82 39.5 20 39.5Z" fill="white"/>
<path d="M36 13.5H28C27.18 13.5 26.5 12.82 26.5 12C26.5 11.18 27.18 10.5 28 10.5H36C36.82 10.5 37.5 11.18 37.5 12C37.5 12.82 36.82 13.5 36 13.5Z" fill="white"/>
<path d="M36 37.5H28C27.18 37.5 26.5 36.82 26.5 36C26.5 35.18 27.18 34.5 28 34.5H36C36.82 34.5 37.5 35.18 37.5 36C37.5 36.82 36.82 37.5 36 37.5Z" fill="white"/>
</svg>
