<svg width="48" height="48" viewBox="0 0 48 48" fill="none" xmlns="http://www.w3.org/2000/svg">
<path d="M35.7788 27.127C28.5747 30.2478 22.8778 36.0393 19.8632 43.2416C16.8761 36.0874 11.2577 30.3129 4.1425 27.1406C11.4239 23.6633 17.0708 17.4819 19.8804 9.92726C22.7563 17.4876 28.4554 23.6608 35.7788 27.127Z" stroke="white" stroke-width="3"/>
<path d="M36.8909 18.2067C35.3103 15.3252 32.8871 12.9785 29.9372 11.4928C32.899 9.80958 35.3233 7.29673 36.8873 4.27416C38.4557 7.31578 40.8917 9.83362 43.8866 11.5012C40.919 12.9735 38.4795 15.3192 36.8909 18.2067Z" stroke="white" stroke-width="3"/>
<path d="M38.5983 39.7224C35.9053 40.8487 33.7341 42.9336 32.4952 45.5552C31.2637 42.9429 29.1115 40.8589 26.439 39.717C29.1273 38.3886 31.282 36.1513 32.4936 33.4124C33.7095 36.1717 35.8753 38.4134 38.5983 39.7224Z" stroke="white" stroke-width="1.5"/>
<path d="M9.54827 11.3141C7.75295 12.065 6.30551 13.4549 5.47956 15.2026C4.65855 13.4611 3.22376 12.0718 1.4421 11.3105C3.23429 10.4249 4.67075 8.93337 5.47849 7.10744C6.2891 8.94697 7.73292 10.4414 9.54827 11.3141Z" stroke="white"/>
</svg>
