<svg width="48" height="48" viewBox="0 0 48 48" fill="none" xmlns="http://www.w3.org/2000/svg">
<path d="M17.9999 35.4998C17.7799 35.4998 17.5399 35.4398 17.3399 35.3398C15.7999 34.5598 14.4799 33.3998 13.5199 31.9598C12.7199 30.7598 12.7199 29.2199 13.5199 28.0199C14.4799 26.5799 15.7999 25.4198 17.3399 24.6598C18.0799 24.2798 18.9799 24.5998 19.3599 25.3398C19.7399 26.0798 19.4399 26.9799 18.6799 27.3599C17.5999 27.8999 16.6799 28.7198 16.0199 29.7198C15.8999 29.8998 15.8999 30.1398 16.0199 30.3398C16.6799 31.3398 17.5999 32.1599 18.6799 32.6999C19.4199 33.0799 19.7199 33.9799 19.3599 34.7199C19.0799 35.1999 18.5399 35.4998 17.9999 35.4998Z" fill="white"/>
<path d="M30.4199 35.4998C29.8599 35.4998 29.3399 35.1998 29.0799 34.6798C28.6999 33.9398 28.9999 33.0398 29.7599 32.6598C30.8399 32.1198 31.7599 31.2998 32.4199 30.2998C32.5399 30.1198 32.5399 29.8798 32.4199 29.6798C31.7599 28.6798 30.8399 27.8598 29.7599 27.3198C29.0199 26.9398 28.7199 26.0398 29.0799 25.2998C29.4599 24.5598 30.3599 24.2598 31.0999 24.6198C32.6399 25.3998 33.9599 26.5598 34.9199 27.9998C35.7199 29.1998 35.7199 30.7398 34.9199 31.9398C33.9599 33.3798 32.6399 34.5398 31.0999 35.2998C30.8599 35.4398 30.6399 35.4998 30.4199 35.4998Z" fill="white"/>
<path d="M30 45.5H18C7.14 45.5 2.5 40.86 2.5 30V18C2.5 7.14 7.14 2.5 18 2.5H30C40.86 2.5 45.5 7.14 45.5 18V30C45.5 40.86 40.86 45.5 30 45.5ZM18 5.5C8.78 5.5 5.5 8.78 5.5 18V30C5.5 39.22 8.78 42.5 18 42.5H30C39.22 42.5 42.5 39.22 42.5 30V18C42.5 8.78 39.22 5.5 30 5.5H18Z" fill="white"/>
<path d="M4.45996 17.52C3.63996 17.52 2.95996 16.84 2.95996 16.02C2.95996 15.2 3.61996 14.52 4.45996 14.52L42.9 14.5C43.72 14.5 44.4 15.18 44.4 16C44.4 16.82 43.74 17.5 42.9 17.5L4.45996 17.52Z" fill="white"/>
</svg>
