<svg width="48" height="48" viewBox="0 0 48 48" fill="none" xmlns="http://www.w3.org/2000/svg">
<path d="M30 45.5H18C7.14 45.5 2.5 40.86 2.5 30V18C2.5 7.14 7.14 2.5 18 2.5H30C40.86 2.5 45.5 7.14 45.5 18V30C45.5 40.86 40.86 45.5 30 45.5ZM18 5.5C8.78 5.5 5.5 8.78 5.5 18V30C5.5 39.22 8.78 42.5 18 42.5H30C39.22 42.5 42.5 39.22 42.5 30V18C42.5 8.78 39.22 5.5 30 5.5H18Z" fill="white"/>
<path d="M31 38.5C27.96 38.5 25.5 36.04 25.5 33V15C25.5 11.96 27.96 9.5 31 9.5C34.04 9.5 36.5 11.96 36.5 15V33C36.5 36.04 34.04 38.5 31 38.5ZM31 12.5C29.62 12.5 28.5 13.62 28.5 15V33C28.5 34.38 29.62 35.5 31 35.5C32.38 35.5 33.5 34.38 33.5 33V15C33.5 13.62 32.38 12.5 31 12.5Z" fill="white"/>
<path d="M17 38.5C13.96 38.5 11.5 36.04 11.5 33V26C11.5 22.96 13.96 20.5 17 20.5C20.04 20.5 22.5 22.96 22.5 26V33C22.5 36.04 20.04 38.5 17 38.5ZM17 23.5C15.62 23.5 14.5 24.62 14.5 26V33C14.5 34.38 15.62 35.5 17 35.5C18.38 35.5 19.5 34.38 19.5 33V26C19.5 24.62 18.38 23.5 17 23.5Z" fill="white"/>
</svg>
