<svg width="48" height="48" viewBox="0 0 48 48" fill="none" xmlns="http://www.w3.org/2000/svg">
<path d="M32.1196 33.4998C32.0996 33.4998 32.0796 33.4998 32.0396 33.4998H12.7196C7.4596 33.1398 5.09961 29.0998 5.09961 25.4998C5.09961 22.3398 6.91964 18.8399 10.8796 17.7999C9.83964 13.4599 10.7996 9.39978 13.6196 6.43978C16.8996 2.99978 22.1396 1.63988 26.6796 3.03988C30.7996 4.29988 33.6997 7.65979 34.7797 12.3198C38.3597 13.1798 41.2196 15.8999 42.3596 19.6599C43.6196 23.7799 42.4596 27.9998 39.3596 30.6998C37.4196 32.4998 34.8396 33.4998 32.1196 33.4998ZM12.7996 20.5199C9.57962 20.7799 8.13965 23.1998 8.13965 25.4998C8.13965 27.8198 9.59962 30.2598 12.8596 30.4998H32.0797C32.0997 30.4998 32.1196 30.4998 32.1396 30.4998C34.0996 30.4998 35.9797 29.7798 37.3997 28.4598C40.0397 26.1598 40.2197 22.8599 39.5197 20.5199C38.7997 18.1799 36.8197 15.5398 33.3397 15.0998C32.6797 15.0198 32.1596 14.5198 32.0396 13.8598C31.3596 9.75983 29.1396 6.93988 25.8196 5.91988C22.3996 4.87988 18.2996 5.93988 15.8196 8.53988C13.3996 11.0799 12.8396 14.6199 14.2396 18.5399C14.5196 19.3199 14.1197 20.1798 13.3397 20.4598C13.1597 20.4998 12.9996 20.5399 12.7996 20.5199Z" fill="white"/>
</svg>
