<svg width="48" height="48" viewBox="0 0 48 48" fill="none" xmlns="http://www.w3.org/2000/svg">
<path d="M23.9995 45.5001C22.7995 45.5001 21.6195 45.2201 20.6595 44.6801L11.1995 39.2201C7.27953 36.5801 7.01953 36.1001 7.01953 31.9601V22.0401C7.01953 17.9001 7.27953 17.4201 11.1195 14.8401L20.6795 9.32012C22.5795 8.22012 25.4395 8.22012 27.3395 9.32012L36.7995 14.7801C40.7195 17.4201 40.9795 17.9001 40.9795 22.0401V31.9601C40.9795 36.1001 40.7195 36.5801 36.8795 39.1601L27.3195 44.6801C26.3795 45.2401 25.1795 45.5001 23.9995 45.5001ZM23.9995 11.5001C23.3195 11.5001 22.6395 11.6401 22.1595 11.9201L12.6995 17.3801C10.0195 19.2001 10.0195 19.2001 10.0195 22.0401V31.9601C10.0195 34.8001 10.0195 34.8001 12.7995 36.6801L22.1795 42.0801C23.1395 42.6401 24.8795 42.6401 25.8395 42.0801L35.2995 36.6201C37.9795 34.8001 37.9795 34.8001 37.9795 31.9601V22.0401C37.9795 19.2001 37.9795 19.2001 35.1995 17.3201L25.8195 11.9201C25.3595 11.6401 24.6795 11.5001 23.9995 11.5001Z" fill="#FFDB70"/>
<path d="M35 16.76C34.18 16.76 33.5 16.08 33.5 15.26V10C33.5 6.84 32.16 5.5 29 5.5H19C15.84 5.5 14.5 6.84 14.5 10V15.12C14.5 15.94 13.82 16.62 13 16.62C12.18 16.62 11.5 15.96 11.5 15.12V10C11.5 5.16 14.16 2.5 19 2.5H29C33.84 2.5 36.5 5.16 36.5 10V15.26C36.5 16.08 35.82 16.76 35 16.76Z" fill="#FFDB70"/>
<path d="M27.2605 35.26C26.8405 35.26 26.4005 35.18 25.9605 35L24.0005 34.24L22.0405 35.02C20.9805 35.44 19.9005 35.34 19.1005 34.76C18.3005 34.18 17.8805 33.18 17.9405 32.04L18.0605 29.94L16.7205 28.32C16.0005 27.42 15.7605 26.38 16.0805 25.42C16.3805 24.48 17.2005 23.76 18.3005 23.48L20.3405 22.96L21.4805 21.18C22.7005 19.26 25.3205 19.26 26.5405 21.18L27.6805 22.96L29.7205 23.48C30.8205 23.76 31.6405 24.48 31.9405 25.42C32.2405 26.36 32.0005 27.42 31.2805 28.3L29.9405 29.92L30.0605 32.02C30.1205 33.16 29.7005 34.14 28.9005 34.74C28.4205 35.08 27.8605 35.26 27.2605 35.26ZM19.0405 26.4L20.3805 28.02C20.8405 28.56 21.1005 29.42 21.0605 30.12L20.9405 32.22L22.9005 31.44C23.5605 31.18 24.4405 31.18 25.1005 31.44L27.0605 32.22L26.9405 30.12C26.9005 29.42 27.1605 28.58 27.6205 28.02L28.9605 26.4L26.9205 25.88C26.2405 25.7 25.5205 25.18 25.1405 24.6L24.0205 22.84L22.8805 24.6C22.5005 25.2 21.7805 25.72 21.1005 25.9L19.0405 26.4Z" fill="#FFDB70"/>
</svg>
