<svg width="48" height="48" viewBox="0 0 48 48" fill="none" xmlns="http://www.w3.org/2000/svg">
<path d="M28.8 41.5H19.2C10.42 41.5 6.5 37.58 6.5 28.8V19.2C6.5 10.42 10.42 6.5 19.2 6.5H28.8C37.58 6.5 41.5 10.42 41.5 19.2V28.8C41.5 37.58 37.58 41.5 28.8 41.5ZM19.2 9.5C12.04 9.5 9.5 12.04 9.5 19.2V28.8C9.5 35.96 12.04 38.5 19.2 38.5H28.8C35.96 38.5 38.5 35.96 38.5 28.8V19.2C38.5 12.04 35.96 9.5 28.8 9.5H19.2Z" fill="white"/>
<path d="M27 35.5H21C15.2 35.5 12.5 32.8 12.5 27V21C12.5 15.2 15.2 12.5 21 12.5H27C32.8 12.5 35.5 15.2 35.5 21V27C35.5 32.8 32.8 35.5 27 35.5ZM21 15.5C16.84 15.5 15.5 16.84 15.5 21V27C15.5 31.16 16.84 32.5 21 32.5H27C31.16 32.5 32.5 31.16 32.5 27V21C32.5 16.84 31.16 15.5 27 15.5H21Z" fill="white"/>
<path d="M16.02 9.5C15.18 9.5 14.52 8.82 14.52 8V4C14.52 3.18 15.2 2.5 16.02 2.5C16.84 2.5 17.52 3.18 17.52 4V8C17.52 8.82 16.84 9.5 16.02 9.5Z" fill="white"/>
<path d="M24 9.5C23.18 9.5 22.5 8.82 22.5 8V4C22.5 3.18 23.18 2.5 24 2.5C24.82 2.5 25.5 3.18 25.5 4V8C25.5 8.82 24.82 9.5 24 9.5Z" fill="white"/>
<path d="M32 9.5C31.18 9.5 30.5 8.82 30.5 8V4C30.5 3.18 31.18 2.5 32 2.5C32.82 2.5 33.5 3.18 33.5 4V8C33.5 8.82 32.82 9.5 32 9.5Z" fill="white"/>
<path d="M44 17.5H40C39.18 17.5 38.5 16.82 38.5 16C38.5 15.18 39.18 14.5 40 14.5H44C44.82 14.5 45.5 15.18 45.5 16C45.5 16.82 44.84 17.5 44 17.5Z" fill="white"/>
<path d="M44 25.5H40C39.18 25.5 38.5 24.82 38.5 24C38.5 23.18 39.18 22.5 40 22.5H44C44.82 22.5 45.5 23.18 45.5 24C45.5 24.82 44.84 25.5 44 25.5Z" fill="white"/>
<path d="M44 33.5H40C39.18 33.5 38.5 32.82 38.5 32C38.5 31.18 39.18 30.5 40 30.5H44C44.82 30.5 45.5 31.18 45.5 32C45.5 32.82 44.84 33.5 44 33.5Z" fill="white"/>
<path d="M32 45.5C31.18 45.5 30.5 44.82 30.5 44V40C30.5 39.18 31.18 38.5 32 38.5C32.82 38.5 33.5 39.18 33.5 40V44C33.5 44.82 32.82 45.5 32 45.5Z" fill="white"/>
<path d="M24.02 45.5C23.2 45.5 22.52 44.82 22.52 44V40C22.52 39.18 23.2 38.5 24.02 38.5C24.84 38.5 25.52 39.18 25.52 40V44C25.52 44.82 24.84 45.5 24.02 45.5Z" fill="white"/>
<path d="M16.02 45.5C15.2 45.5 14.52 44.82 14.52 44V40C14.52 39.18 15.2 38.5 16.02 38.5C16.84 38.5 17.52 39.18 17.52 40V44C17.52 44.82 16.84 45.5 16.02 45.5Z" fill="white"/>
<path d="M8 17.5H4C3.18 17.5 2.5 16.84 2.5 16C2.5 15.16 3.18 14.5 4 14.5H8C8.82 14.5 9.5 15.18 9.5 16C9.5 16.82 8.84 17.5 8 17.5Z" fill="white"/>
<path d="M8 25.5H4C3.18 25.5 2.5 24.82 2.5 24C2.5 23.18 3.18 22.5 4 22.5H8C8.82 22.5 9.5 23.18 9.5 24C9.5 24.82 8.84 25.5 8 25.5Z" fill="white"/>
<path d="M8 33.5H4C3.18 33.5 2.5 32.82 2.5 32C2.5 31.18 3.18 30.5 4 30.5H8C8.82 30.5 9.5 31.18 9.5 32C9.5 32.82 8.84 33.5 8 33.5Z" fill="white"/>
</svg>
