<svg width="40" height="40" viewBox="0 0 40 40" fill="none" xmlns="http://www.w3.org/2000/svg">
<path d="M11.4668 31.4998C10.7835 31.4998 10.2168 30.9331 10.2168 30.2498V26.7998C10.2168 26.1165 10.7835 25.5498 11.4668 25.5498C12.1501 25.5498 12.7168 26.1165 12.7168 26.7998V30.2498C12.7168 30.9498 12.1501 31.4998 11.4668 31.4998Z" fill="#FFDB70"/>
<path d="M20 31.5002C19.3167 31.5002 18.75 30.9335 18.75 30.2502V23.3335C18.75 22.6502 19.3167 22.0835 20 22.0835C20.6833 22.0835 21.25 22.6502 21.25 23.3335V30.2502C21.25 30.9502 20.6833 31.5002 20 31.5002Z" fill="#FFDB70"/>
<path d="M28.5332 31.5C27.8499 31.5 27.2832 30.9333 27.2832 30.25V19.8833C27.2832 19.2 27.8499 18.6333 28.5332 18.6333C29.2165 18.6333 29.7832 19.2 29.7832 19.8833V30.25C29.7832 30.95 29.2332 31.5 28.5332 31.5Z" fill="#FFDB70"/>
<path d="M11.4663 21.9669C10.8996 21.9669 10.3996 21.5835 10.2496 21.0169C10.083 20.3502 10.483 19.6669 11.1663 19.5002C17.2996 17.9669 22.6996 14.6169 26.8163 9.83352L27.583 8.93352C28.033 8.41686 28.8163 8.35019 29.3496 8.80019C29.8663 9.25019 29.933 10.0335 29.483 10.5669L28.7163 11.4669C24.2663 16.6669 18.3996 20.2835 11.7663 21.9335C11.6663 21.9669 11.5663 21.9669 11.4663 21.9669Z" fill="#FFDB70"/>
<path d="M28.5337 15.8667C27.8504 15.8667 27.2837 15.3 27.2837 14.6167V11H23.6504C22.9671 11 22.4004 10.4333 22.4004 9.75C22.4004 9.06667 22.9671 8.5 23.6504 8.5H28.5337C29.2171 8.5 29.7837 9.06667 29.7837 9.75V14.6333C29.7837 15.3167 29.2337 15.8667 28.5337 15.8667Z" fill="#FFDB70"/>
<path d="M24.9997 37.9168H14.9997C5.94967 37.9168 2.08301 34.0502 2.08301 25.0002V15.0002C2.08301 5.95016 5.94967 2.0835 14.9997 2.0835H24.9997C34.0497 2.0835 37.9163 5.95016 37.9163 15.0002V25.0002C37.9163 34.0502 34.0497 37.9168 24.9997 37.9168ZM14.9997 4.5835C7.31634 4.5835 4.58301 7.31683 4.58301 15.0002V25.0002C4.58301 32.6835 7.31634 35.4168 14.9997 35.4168H24.9997C32.683 35.4168 35.4163 32.6835 35.4163 25.0002V15.0002C35.4163 7.31683 32.683 4.5835 24.9997 4.5835H14.9997Z" fill="#FFDB70"/>
</svg>
